<svg width="331" height="34" viewBox="0 0 331 34" fill="none" xmlns="http://www.w3.org/2000/svg">
<g clip-path="url(#clip0_1_2)">
<path d="M95.853 0.141002L95.488 0.137002C91.718 0.137002 88.462 2.111 86.065 5.847L70.258 31.886C70.8818 32.048 71.5235 32.131 72.168 32.133C73.468 32.133 75.254 31.762 76.394 29.985L89.457 8.535C90.137 7.419 92.463 3.782 95.435 3.723H95.753C98.715 3.789 101.223 7.421 101.902 8.533L106.772 16.607H90.837C89.805 16.607 86.43 16.894 85.616 20.519L109.131 20.517L114.726 29.794C115.812 31.372 117.324 32.179 119.209 32.179C120.03 32.179 120.744 32.019 121.2 31.885L105.313 5.871C103.627 3.247 100.632 0.141002 95.853 0.141002Z" fill="white"/>
<path d="M153.026 2.332L139.964 23.782C139.283 24.898 136.56 28.594 133.985 28.594H133.668C131.056 28.594 128.198 24.894 127.518 23.784L114.694 2.522C113.608 0.945002 112.097 0.137002 110.211 0.137002C109.537 0.141723 108.867 0.241026 108.221 0.432002L124.108 26.447C125.794 29.071 128.79 32.177 133.568 32.177L133.933 32.179C137.704 32.179 140.96 30.206 143.356 26.47L159.164 0.432002C158.54 0.269146 157.899 0.185818 157.254 0.184002C155.952 0.185002 154.166 0.557002 153.026 2.332Z" fill="white"/>
<path d="M80.583 0.185002C79.282 0.185002 77.497 0.557002 76.357 2.332L63.294 23.782C62.613 24.898 60.314 28.594 57.71 28.594H57.655C55.129 28.594 53.7742 25.6 53.1037 24.1182C53.0483 23.9958 52.9973 23.8832 52.951 23.784L44.863 2.656C44.119 0.811002 43.134 0.190002 41.248 0.190002H41.245C39.358 0.190002 38.374 0.811002 37.63 2.656L29.54 23.785C28.984 25.209 27.474 28.595 24.836 28.595H24.782C22.1303 28.595 19.9596 25.0328 19.2368 23.8467L6.136 2.332C4.996 0.557002 3.21 0.185002 1.909 0.185002C1.096 0.185002 0.405 0.325002 0 0.433002L15.807 26.471C18.203 30.207 20.934 32.18 24.704 32.18L24.807 32.178C30.388 32.178 32.151 29.175 33.247 26.448L41.26 5.734V5.74C41.732 6.689 49.266 26.448 49.266 26.448C50.363 29.175 52.106 32.178 57.687 32.178L57.789 32.18C61.559 32.18 64.29 30.207 66.687 26.471L82.493 0.432002C81.8693 0.269578 81.2275 0.186588 80.583 0.185002Z" fill="white"/>
<path d="M239.032 0.118002L239.053 27.01L239.033 27.031L207.665 1.105C206.911 0.493002 204.972 -0.756998 203.114 0.629002C202.239 1.356 201.507 2.489 201.456 4.282L201.454 4.332L201.444 28.311C201.614 31.942 204.563 32.839 205.782 33.055V5.457L239.032 33.029V33.037L239.034 33.034L239.036 33.037V33.029L239.054 33.012V33.054C240.275 32.839 243.392 31.661 243.392 27.829L243.384 4.922C243.384 4.922 243.616 0.118002 239.032 0.118002Z" fill="white"/>
<path d="M164.118 19.912V12.411C164.25 6.974 167.48 4.103 173.466 4.103L193.263 4.096C194.179 4.049 197.242 3.62 198.564 0.140002L171.634 0.145002C165.245 0.145002 159.64 5.127 159.64 10.803L159.648 21.634C159.722 27.346 165.211 32.174 171.634 32.174L193.411 32.169C194.552 32.081 197.319 31.508 198.567 28.214L173.465 28.217C167.48 28.217 164.25 25.344 164.118 19.912Z" fill="white"/>
<path d="M166.924 17.959H186.654L186.701 17.956C190.295 17.845 191.185 15.24 191.402 13.969H171.513C167.999 14.144 167.132 16.702 166.924 17.959Z" fill="white"/>
<path d="M252.39 19.912V12.411C252.523 6.974 255.753 4.103 261.74 4.103L281.535 4.096C282.451 4.049 285.514 3.62 286.836 0.140003L259.906 0.145003C253.517 0.145003 247.914 5.127 247.914 10.803L247.92 21.634C247.994 27.346 253.484 32.174 259.906 32.174L281.685 32.169C282.824 32.081 285.593 31.508 286.839 28.214L261.739 28.217C255.753 28.217 252.522 25.344 252.39 19.912Z" fill="white"/>
<path d="M274.925 18.113H255.196C255.403 16.856 256.272 14.298 259.784 14.122H279.673C279.456 15.393 278.568 17.998 274.974 18.109L274.925 18.113Z" fill="white"/>
<path d="M324.63 4.096C325.546 4.048 328.917 3.619 330.241 0.139H289.738C291.062 3.619 294.123 4.048 295.039 4.096L307.75 4.099V32.187C309.007 31.981 312.054 31.112 312.232 27.593V4.099L324.63 4.096Z" fill="white"/>
</g>
<defs>
<clipPath id="clip0_1_2">
<rect width="331" height="34" fill="white"/>
</clipPath>
</defs>
</svg>
